<?xml version="1.0" encoding="UTF-8"?>
<svg width="106px" height="63px" viewBox="0 0 106 63" version="1.1" xmlns="http://www.w3.org/2000/svg" xmlns:xlink="http://www.w3.org/1999/xlink">
    <title>Dankort default</title>
    <g id="Dankort-default" stroke="none" stroke-width="1" fill="none" fill-rule="evenodd">
        <g id="Dankort-logo">
            <rect id="background" fill="#FFFFFF" x="0" y="0" width="106" height="63" rx="30.5"></rect>
            <path d="M82,28.893605 L96.2992195,46 C99.2606932,41.6948024 101,36.4762509 101,30.8548289 C101,24.9218719 99.0622428,19.4349662 95.7924178,15 L82,28.893605 Z" id="Fill-1" fill="#E21F28" fill-rule="nonzero"></path>
            <path d="M41.4087313,14.3041866 C52.1720199,14.3041866 60.281921,17.016926 61.1166971,26 L72.4442808,14.3028402 L95,14.3028402 C90.0932833,8.61391905 82.8016213,5 74.6738241,5 L31.3307066,5 C23.1999644,5 15.9069432,8.61391905 11,14.3041866 L41.4087313,14.3041866 Z" id="Fill-4" fill="#E21F28" fill-rule="nonzero"></path>
            <path d="M23.889068,27 L20,37 L35.6908204,37 C40.329417,37 41.7328921,35.2040727 42.7710007,31.7466237 C43.7983363,28.3269024 41.2178491,27 38.0478243,27 L23.889068,27 Z" id="Fill-7" fill="#E21F28" fill-rule="nonzero"></path>
            <path d="M71.9957053,47.9889214 L60.0415914,33 C57.830244,43.2196477 50.5949367,47.9871272 37.0314196,47.9871272 L10,47.9871272 C14.8901447,54.0838403 22.4310579,58 30.8777125,58 L74.1265823,58 C82.5702984,58 90.1096292,54.0854101 95,47.9889214 L71.9957053,47.9889214 Z" id="Fill-9" fill="#E21F28" fill-rule="nonzero"></path>
        </g>
    </g>
</svg>