<?xml version="1.0" encoding="UTF-8"?> <svg xmlns="http://www.w3.org/2000/svg" width="162" height="32" viewBox="0 0 162 32" fill="none"><path d="M80.9996 24.5996C80.7996 24.5996 80.5996 24.4996 80.5996 24.1996V8.3996C80.5996 8.1996 80.6996 7.9996 80.8996 7.8996C82.7996 7.0996 85.0996 6.59961 87.3996 6.59961C91.9996 6.59961 95.0996 8.6996 95.0996 13.9996V24.2996C95.0996 24.4996 94.9996 24.6996 94.6996 24.6996H92.6996C92.4996 24.6996 92.2996 24.5996 92.2996 24.2996V13.9996C92.2996 10.4996 90.4996 9.09961 87.3996 9.09961C85.9996 9.09961 84.3996 9.3996 83.3996 9.6996V24.1996C83.3996 24.3996 83.2996 24.5996 82.9996 24.5996H80.9996Z" fill="#005677"></path><path d="M113.4 16.6995C113.4 16.9995 113.3 17.0995 113 17.0995H101.9V18.4995C101.9 21.0995 103.8 22.3995 106.3 22.3995C108.7 22.3995 110.3 21.4995 111.5 20.4995C111.7 20.3995 111.9 20.3995 112 20.5995L113 21.8995C113.2 22.0995 113.1 22.2995 112.9 22.3995C111.2 23.7995 109 24.8995 106.2 24.8995C102.5 24.8995 99 22.7995 99 18.4995V13.2995C99 8.59951 102.5 6.49951 106.2 6.49951C109.9 6.49951 113.3 8.59951 113.3 13.2995L113.4 16.6995ZM106.3 9.09952C103.7 9.09952 101.9 10.3995 101.9 13.3995V14.7995H110.7V13.3995C110.7 10.4995 108.8 9.09952 106.3 9.09952Z" fill="#005677"></path><path d="M123.299 22.3997C123.699 22.3997 124.299 22.3997 124.899 22.2997C125.199 22.2997 125.299 22.3997 125.299 22.6997V24.4997C125.299 24.6997 125.199 24.8997 124.999 24.8997C124.399 24.8997 123.599 24.9997 123.199 24.9997C119.799 24.9997 117.299 23.1997 117.299 18.9997V3.09971C117.299 2.79971 117.399 2.69971 117.699 2.69971H119.499C119.699 2.69971 119.799 2.79971 119.899 3.09971L120.099 7.19971H124.499C124.699 7.19971 124.899 7.29972 124.899 7.59972V9.29971C124.899 9.59971 124.799 9.69971 124.499 9.69971H119.999V18.8997C119.999 21.0997 121.199 22.3997 123.299 22.3997Z" fill="#005677"></path><path d="M134 24.9997C131.6 24.9997 129.3 24.2997 127.3 22.7997C127.1 22.6997 127.1 22.4997 127.2 22.2997L128.1 20.6997C128.2 20.4997 128.4 20.3997 128.6 20.5997C130.2 21.7997 132.1 22.4997 134.1 22.4997C136.4 22.4997 138.1 21.4997 138.1 19.7997C138.1 17.8997 136 17.3997 134.1 17.0997C131.6 16.5997 127.5 15.5997 127.5 11.6997C127.5 8.19971 130.8 6.69971 134.2 6.69971C136.3 6.69971 138.3 7.19971 140.1 8.29971C140.3 8.39971 140.4 8.59971 140.2 8.79971L139.3 10.2997C139.2 10.4997 139 10.5997 138.8 10.3997C137.4 9.6997 135.7 9.09972 134 9.09972C131.6 9.09972 130.2 10.0997 130.2 11.5997C130.2 13.4997 132.2 13.9997 134.6 14.4997C137.3 14.9997 140.9 15.7997 140.9 19.5997C141 23.0997 138 24.9997 134 24.9997Z" fill="#005677"></path><path d="M150 9.19971C152.209 9.19971 154 7.40885 154 5.19971C154 2.99057 152.209 1.19971 150 1.19971C147.791 1.19971 146 2.99057 146 5.19971C146 7.40885 147.791 9.19971 150 9.19971Z" fill="#00BEF0"></path><path d="M158.4 7.69971C159.781 7.69971 160.9 6.58042 160.9 5.19971C160.9 3.819 159.781 2.69971 158.4 2.69971C157.02 2.69971 155.9 3.819 155.9 5.19971C155.9 6.58042 157.02 7.69971 158.4 7.69971Z" fill="#00BEF0"></path><path d="M158.4 17.0996C160.333 17.0996 161.9 15.5326 161.9 13.5996C161.9 11.6666 160.333 10.0996 158.4 10.0996C156.467 10.0996 154.9 11.6666 154.9 13.5996C154.9 15.5326 156.467 17.0996 158.4 17.0996Z" fill="#00BEF0"></path><path d="M150 24.9995C151.657 24.9995 153 23.6564 153 21.9995C153 20.3427 151.657 18.9995 150 18.9995C148.343 18.9995 147 20.3427 147 21.9995C147 23.6564 148.343 24.9995 150 24.9995Z" fill="#00BEF0"></path><path d="M71.6008 31.2998C71.5008 31.2998 71.3008 31.0998 71.3008 30.8998V0.699799C71.3008 0.499799 71.4008 0.299805 71.6008 0.299805C71.8008 0.299805 71.9008 0.499799 71.9008 0.699799V30.8998C71.9008 31.0998 71.7008 31.2998 71.6008 31.2998Z" fill="#76777A"></path><path d="M62.5996 6.8999H58.0996V24.6999H62.5996V6.8999Z" fill="#2D32AA"></path><path d="M9.10039 6.3999C4.80039 6.3999 0.400391 7.8999 0.400391 7.8999V24.6999H5.00039V10.9999C5.00039 10.9999 6.70039 10.2999 9.10039 10.2999C12.1004 10.2999 13.4004 11.8999 13.4004 14.4999C13.4004 14.7999 13.4004 24.6999 13.4004 24.6999H18.0004C18.0004 24.4999 18.0004 14.7999 18.0004 14.4999C18.0004 8.99991 15.4004 6.3999 9.10039 6.3999Z" fill="#2D32AA"></path><path d="M56.8004 6.8999H51.3004L47.1004 12.0999L44.8004 9.19991C43.6004 7.69991 41.8004 6.8999 39.9004 6.8999H37.2004L44.2004 15.6999L36.9004 24.6999H42.4004L46.9004 19.1999L49.5004 22.3999C50.7004 23.7999 52.5004 24.6999 54.4004 24.6999H57.1004L49.8004 15.5999L56.8004 6.8999Z" fill="#2D32AA"></path><path d="M37.6996 21.1998L34.6996 18.6998C33.6996 19.7998 32.0996 21.1998 29.3996 21.1998C27.2996 21.1998 25.3996 19.9998 24.4996 18.0998L38.0996 15.6998C38.0996 14.3998 37.7996 13.0998 37.3996 11.9998C35.9996 8.6998 32.7996 6.2998 28.8996 6.2998C23.6996 6.2998 19.5996 9.9998 19.5996 15.6998C19.5996 21.1998 23.4996 25.0998 29.2996 25.0998C33.6996 25.1998 36.2996 22.8998 37.6996 21.1998ZM28.8996 10.1998C30.8996 10.1998 32.5996 11.0998 33.2996 12.7998L24.0996 14.3998C24.5996 11.6998 26.5996 10.1998 28.8996 10.1998Z" fill="#2D32AA"></path></svg> 