<?xml version="1.0" encoding="UTF-8"?>
<svg width="578px" height="169px" viewBox="0 0 578 169" version="1.1" xmlns="http://www.w3.org/2000/svg" xmlns:xlink="http://www.w3.org/1999/xlink">
    <!-- Generator: Sketch 59.1 (86144) - https://sketch.com -->
    <title>Artboard</title>
    <desc>Created with Sketch.</desc>
    <g id="Artboard" stroke="none" stroke-width="1" fill="none" fill-rule="evenodd">
        <g id="nets_logo" fill-rule="nonzero">
            <g id="Group" transform="translate(0.000000, 10.000000)" fill="#005776">
                <path d="M2.7,156.3 C1,156.3 0,155.3 0,153.6 L0,41.1 C0,39.6 0.5,38.4 1.9,37.7 C15.7,31.9 31.7,28.2 48.5,28.2 C81,28.2 103.1,43.5 103.1,80.6 L103.1,153.6 C103.1,155.3 102.1,156.3 100.2,156.3 L85.9,156.3 C84.2,156.3 83.2,155.3 83.2,153.6 L83.2,81.1 C83.2,55.9 70.3,46.2 48.5,46.2 C38.3,46.2 27.4,48.1 19.9,50.6 L19.9,153.7 C19.9,155.4 18.9,156.4 17,156.4 L2.7,156.4 L2.7,156.3 Z" id="Path"></path>
                <path d="M233.1,100.3 C233.1,102.2 232.1,103.2 230.4,103.2 L151.1,103.2 L151.1,113.4 C151.1,131.6 164.7,141.3 182.6,141.3 C199.3,141.3 210.7,134.8 219.7,127.7 C221.2,126.7 222.6,127 223.6,128.4 L230.6,137.6 C231.8,139.1 231.6,140.3 230.1,141.5 C218,151.7 202.5,159 182.1,159 C155.9,159 130.9,144 130.9,113.4 L130.9,76.5 C130.9,43.3 155.6,28.2 182.3,28.2 C208.7,28.2 233,43.2 233,76.5 L233,100.3 L233.1,100.3 Z M182.4,46.2 C164.2,46.2 151.1,55.7 151.1,76.5 L151.1,86.7 L213.7,86.7 L213.7,76.5 C213.7,55.9 200.1,46.2 182.4,46.2 Z" id="Shape"></path>
                <path d="M303.4,140.6 C306.1,140.6 310.7,140.4 315,140.1 C316.9,140.1 317.9,141.1 317.9,142.8 L317.9,155.7 C317.9,157.2 317.2,158.4 315.5,158.6 C311.1,158.8 305.6,159.1 302.4,159.1 C278.1,159.1 260.2,146 260.2,116.2 L260.2,3.2 C260.2,1.3 261.2,0.3 263.1,0.3 L275.7,0.3 C277.2,0.3 278.1,1.3 278.4,3 L280.1,32.3 L311.6,32.3 C313.3,32.3 314.3,33.3 314.3,35 L314.3,47 C314.3,48.9 313.3,49.9 311.6,49.9 L280.1,49.9 L280.1,115.1 C280.1,131.1 288.4,140.6 303.4,140.6 Z" id="Path"></path>
                <path d="M379.8,159 C363.1,159 346.3,154.1 331.8,143.5 C330.3,142.5 330.3,141.1 331.1,139.6 L337.6,128.4 C338.6,126.7 339.8,126.5 341.5,127.7 C353.1,136.4 366.5,141.3 380.3,141.3 C396.5,141.3 408.9,134.5 408.9,121.9 C408.9,108.3 393.9,105.2 380.3,102.5 C362.8,98.9 333,92.1 333,63.9 C333,39.2 356.5,28.2 380.8,28.2 C396.1,28.2 409.7,32.1 423,39.6 C424.7,40.3 424.9,41.8 424,43.2 L417.5,54.1 C416.8,55.6 415.3,56 413.9,55.1 C404,49.8 392.1,46.1 379.9,46.1 C362.9,46.1 352.7,52.9 352.7,63.8 C352.7,77.1 367,80.8 384.2,84.2 C403.6,88.1 429.1,93.7 429.1,120.8 C429,145.7 408.2,159 379.8,159 Z" id="Path"></path>
            </g>
            <g id="Group" transform="translate(465.000000, 0.000000)" fill="#00BEF0">
                <circle id="Oval" cx="28.4" cy="28.2" r="28.2"></circle>
                <circle id="Oval" cx="88.2" cy="28.2" r="18.1"></circle>
                <circle id="Oval" cx="88.2" cy="87.9" r="24.8"></circle>
                <circle id="Oval" cx="28.4" cy="147.6" r="21.4"></circle>
            </g>
        </g>
    </g>
</svg>