<svg xmlns="http://www.w3.org/2000/svg" viewBox="0 0 150.95 76"><defs><style>.cls-1{fill:#06bdf0;}</style></defs><g id="Layer_2" data-name="Layer 2"><g id="Layer_1-2" data-name="Layer 1"><path class="cls-1" d="M38.67,47.06H10.86C12,51.41,15.45,54,20.36,54a13.2,13.2,0,0,0,9.75-4.36l6,6.1c-3.48,4.68-9.9,7.45-16.4,7.45C8.32,63.14,0,55.14,0,43.73c0-12,9.11-19.49,19.65-19.49s19.26,7.52,19.26,18.85C38.91,44.12,38.83,45.39,38.67,47.06ZM28.45,40.32c-.32-4.36-3.89-7.13-8.56-7.13-4.28,0-7.93,2.14-9,7.13Z"/><path class="cls-1" d="M70.93,25.55H81.11V61.83H70.93V56.62a14.36,14.36,0,0,1-12,6.14c-10,0-17.48-7.77-17.48-19s7.3-19.11,17.71-19.11c4.66,0,9.32,2,11.73,5.75Zm-.31,18.18a9.55,9.55,0,0,0-9.48-9.64,9.6,9.6,0,0,0,.08,19.19A9.56,9.56,0,0,0,70.62,43.73Z"/><path class="cls-1" d="M83.57,50.41h9.56c0,2.1,1.78,4.35,5.36,4.35,3,0,5.2-1.48,5.2-3.58,0-1.55-1.24-2.33-4-3L94.91,47c-9.32-2.49-10.56-7.69-10.56-11.5,0-5.59,5.82-10.87,14.21-10.87,6.61,0,14.38,3.18,14.3,11.81h-9.71c0-2.49-2-3.81-4.43-3.81s-4.2,1.32-4.2,3.18,1.56,2.57,3.58,3.11l6,1.55c8.7,2.34,9.79,7.77,9.79,10.72,0,7.62-7.77,11.58-15.23,11.58C91,62.76,83.65,58.41,83.57,50.41Z"/><path class="cls-1" d="M4,19.1a.28.28,0,0,1-.31-.31V5.87a.41.41,0,0,1,.23-.39A13.79,13.79,0,0,1,9.23,4.4c3.73,0,6.27,1.75,6.27,6v8.38c0,.2-.11.31-.34.31H13.52a.28.28,0,0,1-.3-.31V10.47c0-2.9-1.48-4-4-4A11.36,11.36,0,0,0,6,7V18.79c0,.2-.11.31-.34.31Z"/><path class="cls-1" d="M30.42,12.67c0,.22-.11.33-.3.33H21v1.17c0,2.09,1.56,3.2,3.62,3.2a6.58,6.58,0,0,0,4.26-1.56.3.3,0,0,1,.45.09L30.15,17c.14.16.11.3-.06.44a8.29,8.29,0,0,1-5.51,2c-3,0-5.88-1.73-5.88-5.24V9.94c0-3.82,2.84-5.54,5.9-5.54s5.82,1.72,5.82,5.54ZM24.6,6.46C22.52,6.46,21,7.54,21,9.94v1.17H28.2V9.94A3.26,3.26,0,0,0,24.6,6.46Z"/><path class="cls-1" d="M38.5,17.29c.31,0,.83,0,1.34-.06a.29.29,0,0,1,.33.31V19a.31.31,0,0,1-.28.33c-.5,0-1.14.06-1.5.06-2.79,0-4.85-1.51-4.85-4.93V1.5c0-.22.11-.33.34-.33h1.44a.31.31,0,0,1,.31.3l.2,3.37h3.62a.28.28,0,0,1,.3.31V6.54c0,.22-.11.33-.3.33H35.83v7.5C35.83,16.2,36.77,17.29,38.5,17.29Z"/><path class="cls-1" d="M47.27,19.41a9.2,9.2,0,0,1-5.51-1.79.31.31,0,0,1-.09-.44l.76-1.28c.11-.2.25-.22.44-.09a7.38,7.38,0,0,0,4.46,1.56c1.86,0,3.28-.78,3.28-2.22s-1.72-1.93-3.28-2.23c-2-.42-5.43-1.2-5.43-4.43,0-2.84,2.7-4.09,5.48-4.09a9.52,9.52,0,0,1,4.85,1.31.25.25,0,0,1,.11.41l-.75,1.26a.28.28,0,0,1-.42.11,8.3,8.3,0,0,0-3.9-1c-2,0-3.12.78-3.12,2,0,1.53,1.65,1.95,3.62,2.34,2.23.44,5.15,1.09,5.15,4.2C52.92,17.87,50.53,19.41,47.27,19.41Z"/><circle class="cls-1" cx="60.31" cy="3.24" r="3.24"/><circle class="cls-1" cx="67.18" cy="3.24" r="2.07"/><circle class="cls-1" cx="67.18" cy="10.09" r="2.85"/><circle class="cls-1" cx="60.31" cy="16.95" r="2.46"/><path class="cls-1" d="M139.85,25.55C133.56,40.87,125.33,60,123.1,63c-1.78,2.4-3.52,2.71-4.08,2.75l0,0h-7.87V76h7.11l.64,0c2.37,0,7.92-.73,12.5-6.89,3.92-5.28,15.83-34.29,19.59-43.56Z"/><path class="cls-1" d="M129.5,41.72l-7-16.17H111.32l12.8,28.36C125.72,50.42,127.57,46.2,129.5,41.72Z"/></g></g></svg>