<svg xmlns="http://www.w3.org/2000/svg" 
  xmlns:xlink="http://www.w3.org/1999/xlink" width="2500" height="812" viewBox="-11.153 -13.144 326.05 105.914">
  <g transform="matrix(2.07675 0 0 -2.07675 -11.153 92.77)">
    <defs>
      <path id="a" d="M-84.525-27.457h326.05V78.457h-326.05z"/>
    </defs>
    <clipPath id="b">
      <use xlink:href="#a" overflow="visible"/>
    </clipPath>
    <g clip-path="url(#b)">
      <path d="M117.331 26.863c-.424-2.784-2.55-2.784-4.606-2.784h-1.17l.821 5.198c.05.314.32.545.638.545h.537c1.4 0 2.722 0 3.404-.797.407-.477.53-1.185.376-2.162m-.895 7.264h-7.756a1.08 1.08 0 0 1-1.066-.91L104.48 13.33a.647.647 0 0 1 .638-.747h3.98c.371 0 .687.27.745.636l.89 5.64c.082.523.534.91 1.064.91h2.454c5.11 0 8.058 2.471 8.828 7.372.347 2.142.014 3.826-.989 5.005-1.103 1.296-3.058 1.982-5.653 1.982" fill="#009cde"/>
      <path d="M62.011 26.863c-.424-2.784-2.55-2.784-4.607-2.784h-1.17l.821 5.198c.05.314.32.545.638.545h.537c1.4 0 2.722 0 3.404-.797.408-.477.531-1.185.377-2.162m-.895 7.264H53.36c-.53 0-.982-.386-1.065-.91L49.16 13.33a.646.646 0 0 1 .638-.747h3.704c.53 0 .981.386 1.064.91l.847 5.365c.082.524.534.91 1.064.91h2.454c5.11 0 8.058 2.472 8.828 7.373.347 2.142.014 3.826-.989 5.005-1.103 1.296-3.058 1.982-5.653 1.982M79.123 19.723c-.36-2.122-2.043-3.547-4.192-3.547-1.077 0-1.94.347-2.494 1.003-.55.65-.756 1.577-.582 2.608.334 2.104 2.046 3.574 4.162 3.574 1.055 0 1.91-.35 2.476-1.012.569-.667.793-1.599.63-2.626m5.176 7.23h-3.714a.647.647 0 0 1-.64-.547l-.162-1.038-.26.376c-.804 1.167-2.597 1.558-4.387 1.558-4.103 0-7.608-3.11-8.29-7.47-.355-2.177.149-4.256 1.383-5.707 1.133-1.333 2.75-1.888 4.677-1.888 3.308 0 5.142 2.124 5.142 2.124l-.166-1.032a.646.646 0 0 1 .639-.747h3.344c.53 0 .982.385 1.065.91l2.008 12.713a.647.647 0 0 1-.64.747" fill="#003087"/>
      <path d="M134.443 19.723c-.36-2.122-2.043-3.547-4.192-3.547-1.077 0-1.94.347-2.494 1.003-.55.65-.756 1.577-.582 2.608.334 2.104 2.045 3.574 4.162 3.574 1.055 0 1.91-.35 2.476-1.012.569-.667.793-1.599.63-2.626m5.176 7.23h-3.714a.647.647 0 0 1-.64-.547l-.162-1.038-.26.376c-.804 1.167-2.597 1.558-4.387 1.558-4.102 0-7.607-3.11-8.29-7.47-.355-2.177.15-4.256 1.384-5.707 1.133-1.333 2.75-1.888 4.677-1.888 3.309 0 5.143 2.124 5.143 2.124l-.166-1.032a.644.644 0 0 1 .637-.747h3.343c.53 0 .982.385 1.066.91l2.008 12.713a.647.647 0 0 1-.64.747" fill="#009cde"/>
      <path d="M104.08 26.952h-3.734c-.357 0-.69-.177-.89-.473l-5.15-7.584-2.183 7.288a1.08 1.08 0 0 1-1.033.77h-3.669a.647.647 0 0 1-.612-.856l4.11-12.066-3.866-5.455a.647.647 0 0 1 .528-1.02h3.73c.352 0 .683.173.885.463l12.414 17.918a.646.646 0 0 1-.53 1.015" fill="#003087"/>
      <path d="M143.996 33.58l-3.184-20.251a.647.647 0 0 1 .639-.747h3.201c.53 0 .982.386 1.065.91l3.139 19.888a.646.646 0 0 1-.639.747h-3.582a.645.645 0 0 1-.639-.546" fill="#009cde"/>
    </g>
  </g>
</svg>