<svg viewBox="0 0 1276 220.9" xmlns="http://www.w3.org/2000/svg">
<path class="Logo__path" d="M498 47.5v137.7h-43.8v-19.4c-1.7 3.3-4 6.3-6.9 9s-6.1 5.1-9.9 7.1c-3.7 2-7.7 3.6-12.2 4.9-4.4 1.3-8.7 1.9-13.2 1.9-9.9 0-19-1.9-27.3-5.6s-15.4-8.7-21.3-15.2c-5.9-6.4-10.4-14-13.7-22.9-3.3-8.9-4.9-18.4-4.9-28.7s1.6-19.9 4.9-28.7c3.3-8.9 7.9-16.4 13.7-22.9 5.9-6.4 13-11.4 21.3-15.2s17.4-5.6 27.3-5.6c4.4 0 8.7.6 13.2 1.9 4.4 1.3 8.4 2.9 12.2 5 3.7 2.1 7 4.6 9.9 7.4 2.9 2.9 5.1 5.9 6.9 8.9V47.5H498zm-76.6 104.1c5 0 9.4-1 13.4-2.9s7.4-4.4 10.3-7.6c2.9-3.1 5.1-6.9 6.7-11.2 1.6-4.3 2.4-8.9 2.4-13.6s-.9-9.3-2.4-13.4c-1.6-4.1-3.9-7.9-6.7-11.2-2.9-3.3-6.3-5.9-10.3-7.7-4-1.9-8.4-2.9-13.4-2.9s-9.4 1-13.4 2.9-7.4 4.4-10.3 7.7-5.1 7-6.7 11.2c-1.6 4.1-2.4 8.7-2.4 13.4s.9 9.3 2.4 13.6c1.6 4.3 3.9 8 6.7 11.2 2.9 3.1 6.3 5.7 10.3 7.6 3.9 1.9 8.5 2.9 13.4 2.9zM664.3 127c.1 4.1.9 8.2 1.9 11.9 1 3.7 2.7 7 5.1 9.7 2.4 2.7 5.4 5 9.3 6.6s8.6 2.4 14.3 2.4c7.6 0 13.4-1.6 17.3-4.6 3.9-3 6.6-6.7 8.2-11.2h42.9c-1 6.4-3.1 12.6-6.7 18.3-3.6 5.7-8.2 10.7-14 15-5.9 4.3-12.7 7.7-20.6 10.2-7.9 2.4-16.9 3.7-26.7 3.7-12 0-22.6-1.7-31.9-5.3-9.3-3.6-17-8.6-23.3-15s-11-14.2-14.3-23c-3.3-8.9-4.9-18.6-4.9-29.3 0-10.2 1.6-19.6 4.7-28.3s7.9-16.4 14-23 13.9-11.7 22.9-15.6 19.6-5.7 31.6-5.7c10.9 0 20.6 1.7 29.3 5.1 8.7 3.4 16.2 8 22.3 13.7s11 12.4 14.3 20 5 15.6 5 24c0 2.9 0 5.9-.1 9.2s-.6 7-1.3 11.2h-99.3zm29.5-54.1c-8.6 0-15.6 2.4-21.2 7.4s-8.3 12.2-8.3 21.4h57.8c0-9-2.6-16-7.9-21.2-5.3-5-12.1-7.6-20.4-7.6zM1099.6 49v137.7h-43.8v-19.4c-1.7 3.3-4 6.3-6.9 9s-6.1 5.1-9.9 7.1c-3.7 2-7.7 3.6-12.2 4.9-4.4 1.3-8.7 1.9-13.2 1.9-9.9 0-19-1.9-27.3-5.6s-15.4-8.7-21.3-15.2c-5.9-6.4-10.4-14-13.7-22.9s-4.9-18.4-4.9-28.7 1.6-19.9 4.9-28.7c3.3-8.9 7.9-16.4 13.7-22.9 5.9-6.4 13-11.4 21.3-15.2 8.3-3.7 17.4-5.6 27.3-5.6 4.4 0 8.7.6 13.2 1.9 4.4 1.3 8.4 2.9 12.2 5 3.7 2.1 7 4.6 9.9 7.4 2.9 2.9 5.1 5.9 6.9 8.9V48.9h43.8v.1zm-76.5 104c5 0 9.4-1 13.4-2.9s7.4-4.4 10.3-7.6 5.1-6.9 6.7-11.2 2.4-8.9 2.4-13.6c0-4.7-.9-9.3-2.4-13.4s-3.9-7.9-6.7-11.2c-2.9-3.3-6.3-5.9-10.3-7.7-4-1.9-8.4-2.9-13.4-2.9s-9.4 1-13.4 2.9-7.4 4.4-10.3 7.7-5.1 7-6.7 11.2c-1.6 4.1-2.4 8.7-2.4 13.4s.9 9.3 2.4 13.6c1.6 4.3 3.9 8 6.7 11.2 2.9 3.1 6.3 5.7 10.3 7.6 3.9 1.9 8.4 2.9 13.4 2.9zm168.7 67.9h-51.2l24.6-49.6L1109.9 49h54l27 72.8 33.9-72.8h51.2l-84.2 171.9zm-592.1-68.3c-2.7 0-5.1-.3-7.4-.9-2.3-.6-4.3-1.7-6-3.3-1.7-1.6-3-4-4-7s-1.4-7.1-1.4-12.3v-49h25.5l16.7-32.6h-42.2V0l-43.6 23.4v24h-21.7V80h21.7v58.9c0 11.4 1.6 20.4 4.7 27s7.1 11.4 12 14.6c4.9 3.1 10.2 5.1 15.9 5.9 5.7.7 11.2 1.1 16.3 1.1 6.4 0 12.2-.3 17-.7 4.9-.4 8.9-1 12.2-1.6v-33.5c-2.1.4-4.6.7-7.4.7-2.9.2-5.6.2-8.3.2zM345.2 47.3c-3.4-1.3-7.6-2.1-12.4-2.1-9.7 0-18.3 2.4-25.9 7.4S294 63.3 290.7 69.8V47.5h-43.8v137.7h43.8v-53.8c0-16.7 3.6-28.6 10.9-35.7 6.3-6 14.3-9.6 24-10.3l19.6-38.1zM131.8 36.9c-14.2-8.4-30.6-13.3-48.2-13.2-37.5.4-69.5 23-83.6 55.2l46.2 45.3 85.6-87.3zm37.4 42l-120.5 123c11.3 4.7 23.7 7.3 36.7 7.3 51.2-.6 92.2-42.3 91.8-93.5-.2-13.2-3-25.6-8-36.8zm656.7-11.7c1.7-3 4-6 6.9-8.9s6.1-5.3 10-7.4c3.9-2.1 7.9-3.7 12.2-5s8.7-1.9 13.3-1.9c9.9 0 19 1.9 27.3 5.6 8.3 3.7 15.4 8.7 21.3 15.2 5.9 6.4 10.4 14 13.7 22.9s4.9 18.4 4.9 28.7-1.6 19.9-4.9 28.7c-3.3 8.9-7.9 16.4-13.7 22.9s-13 11.4-21.3 15.2c-8.3 3.7-17.4 5.6-27.3 5.6-4.6 0-9-.6-13.3-1.9s-8.3-2.9-12.2-5-7.1-4.6-10-7.3c-2.9-2.7-5.1-5.7-6.9-9v55.3h-43.8V47.5h43.8v19.7zm33.2 14c-5 0-9.4 1-13.6 2.9s-7.6 4.4-10.4 7.6c-2.9 3.1-5.1 6.9-6.7 11.2-1.6 4.3-2.4 8.9-2.4 13.6 0 4.7.9 9.3 2.4 13.6 1.6 4.3 3.9 8 6.7 11.2 2.9 3.1 6.3 5.7 10.4 7.6 4.1 1.9 8.6 2.9 13.6 2.9 4.7 0 9.2-1 13.2-2.9s7.4-4.4 10.3-7.6c2.9-3.1 5.1-6.9 6.7-11.2 1.6-4.3 2.4-8.9 2.4-13.6s-.9-9.3-2.4-13.6c-1.6-4.3-3.9-8-6.7-11.2-2.9-3.1-6.3-5.7-10.3-7.6-4.1-1.9-8.4-2.9-13.2-2.9z" fill="#e4003e"></path>
</svg>