<?xml version="1.0" encoding="UTF-8"?>
<svg width="40px" height="25px" viewBox="0 0 40 25" version="1.1" xmlns="http://www.w3.org/2000/svg" xmlns:xlink="http://www.w3.org/1999/xlink">
    <!-- Generator: Sketch 52.6 (67491) - http://www.bohemiancoding.com/sketch -->
    <title>Visa</title>
    <desc>Created with Sketch.</desc>
    <g id="Visa" stroke="none" stroke-width="1" fill="none" fill-rule="evenodd">
        <g id="Card-icon-Copy" fill="none" stroke="none">
            <rect id="Rectangle-2" x="0.5" y="0.5" width="39" height="24" rx="3"></rect>
        </g>
        <g id="Visalogo" transform="translate(6.000000, 8.000000)" fill="#182E66">
            <path d="M13.2398223,0.152577395 L11.4533682,8.50456659 L9.2926126,8.50456659 L11.079229,0.152577395 L13.2398223,0.152577395 Z M22.3301887,5.54570135 L23.4677018,2.40909967 L24.1219992,5.54570135 L22.3301887,5.54570135 Z M24.74221,8.50456659 L26.74,8.50456659 L24.9944497,0.152577395 L23.1515095,0.152577395 C22.7359796,0.152577395 22.3860255,0.393454899 22.2310134,0.76483477 L18.9887437,8.50456659 L21.258089,8.50456659 L21.7085169,7.25732755 L24.4802314,7.25732755 L24.74221,8.50456659 Z M19.1013913,5.77797608 C19.1108056,3.573882 16.0543882,3.45165776 16.0746778,2.46672199 C16.0813328,2.16741059 16.366685,1.84878354 16.9909537,1.76730072 C17.3003288,1.72737089 18.1541129,1.69506993 19.1220055,2.14095302 L19.5005273,0.369107442 C18.9804656,0.181145077 18.3115598,8.8817842e-16 17.4793637,8.8817842e-16 C15.3432802,8.8817842e-16 13.8405552,1.13459148 13.8285438,2.76067695 C13.8149092,3.96311667 14.9021043,4.63364562 15.7193672,5.03408013 C16.5619516,5.44327971 16.8443821,5.70590761 16.8403241,6.07160641 C16.8344808,6.63192254 16.168172,6.88010429 15.5481235,6.88935632 C14.4610907,6.90639954 13.8311408,6.59572599 13.328934,6.36150346 L12.9367776,8.19259451 C13.4423931,8.42389535 14.3742514,8.62549229 15.3388977,8.63571822 C17.6097038,8.63571822 19.0947363,7.51443669 19.1013913,5.77797608 Z M10.1524025,0.152577395 L6.65140051,8.50456659 L4.36760908,8.50456659 L2.64462074,1.83904456 C2.54025131,1.42935802 2.44919182,1.2785661 2.13153867,1.10553685 C1.61196394,0.823106349 0.754121889,0.55917992 -1.08357767e-13,0.395078062 L0.0509673425,0.152577395 L3.72775792,0.152577395 C4.19620299,0.152577395 4.61741399,0.464224839 4.72454279,1.00376448 L5.63465072,5.83705924 L7.88240792,0.152577395 L10.1524025,0.152577395 Z" id="Fill-5"></path>
        </g>
    </g>
</svg>